<svg width="79" height="80" viewBox="0 0 79 80" fill="none" xmlns="http://www.w3.org/2000/svg">
<path fill-rule="evenodd" clip-rule="evenodd" d="M29.0592 1.38409C-8.03581 11.3441 -10.2038 63.8251 25.9452 76.7491C51.2962 85.8131 78.5112 66.8761 78.6592 40.0691C78.8042 13.6531 54.3632 -5.40991 29.0592 1.38409ZM49.8292 16.9431C62.6592 22.9171 67.7932 37.2691 61.5232 49.6331C56.1482 60.2311 44.8232 65.3241 33.7742 62.1121C28.8002 60.6661 27.7122 60.6601 22.3802 62.0411C19.1372 62.8821 16.2442 63.5691 15.9492 63.5691C15.6552 63.5691 16.2112 60.7561 17.1852 57.3191C18.6912 52.0061 18.7622 50.6191 17.6602 48.0691C16.9472 46.4191 16.3472 42.1441 16.3272 38.5691C16.2982 33.1571 16.7872 31.2061 19.2512 26.9091C25.6052 15.8311 38.4502 11.6441 49.8292 16.9431ZM31.2482 21.8191C24.6292 25.1671 20.9682 30.9971 20.9142 38.2751C20.8882 41.8351 21.5142 45.2761 22.5362 47.2001C23.7982 49.5731 23.9792 51.1061 23.2842 53.5301L22.3672 56.7291L26.0832 56.1011C28.4802 55.6961 31.1152 56.0231 33.5042 57.0211C40.9142 60.1171 49.1352 57.9071 54.9822 51.2471C58.5522 47.1811 59.7632 42.6051 59.0172 35.9881C57.5562 23.0311 43.2672 15.7401 31.2482 21.8191ZM35.3212 30.6841C36.2522 32.9331 36.3162 34.2711 35.5492 35.4991C34.2102 37.6421 35.3462 39.7731 39.3462 42.6211C42.2382 44.6801 42.4712 44.7001 44.3012 43.0431C45.9552 41.5471 46.6422 41.4791 49.2472 42.5581C52.9242 44.0811 53.4022 47.8941 50.1362 49.6421C44.9262 52.4311 35.1622 47.6171 30.2202 39.8241C26.8622 34.5301 26.6392 32.9191 28.8302 29.7921C31.0582 26.6111 33.7892 26.9861 35.3212 30.6841Z" fill="white"/>
</svg>
