<svg width="80" height="80" viewBox="0 0 80 80" fill="none" xmlns="http://www.w3.org/2000/svg">
<path fill-rule="evenodd" clip-rule="evenodd" d="M31.9846 0.848832C8.04365 5.59483 -6.10435 31.1778 2.57065 54.0368C10.1936 74.1208 33.5466 84.5098 53.7966 76.8248C73.8806 69.2018 84.2696 45.8488 76.5846 25.5988C72.0766 13.7218 61.1276 4.24083 48.6396 1.39983C41.1186 -0.310168 38.3006 -0.404168 31.9846 0.848832ZM56.2786 18.7778C61.6656 22.0618 62.5776 25.1078 62.5776 39.8178C62.5776 54.5278 61.6656 57.5738 56.2786 60.8578C53.5216 62.5398 51.2066 62.8108 39.5776 62.8108C24.5116 62.8108 21.1316 61.7228 18.1266 55.9118C15.9186 51.6428 15.9186 27.9928 18.1266 23.7238C21.1316 17.9128 24.5116 16.8248 39.5776 16.8248C51.2066 16.8248 53.5216 17.0958 56.2786 18.7778ZM23.7516 24.1318C21.7406 26.2728 21.5776 27.4618 21.5776 39.9578C21.5776 58.1758 21.2136 57.8178 39.7176 57.8178C57.9356 57.8178 57.5776 58.1818 57.5776 39.6778C57.5776 21.4598 57.9416 21.8178 39.4376 21.8178C26.6076 21.8178 25.8166 21.9348 23.7516 24.1318ZM54.3806 27.4408C54.7656 30.1388 51.7646 31.4328 49.7636 29.4318C47.7256 27.3948 49.0236 24.5998 51.8236 24.9978C53.2266 25.1968 54.1916 26.1198 54.3806 27.4408ZM45.5376 29.4538C53.4656 34.1358 53.4656 45.4998 45.5376 50.1818C40.0306 53.4358 32.0486 51.2468 28.9306 45.6278C25.9836 40.3168 28.3806 32.1598 33.7676 29.1708C36.9846 27.3858 42.2516 27.5118 45.5376 29.4538ZM34.8006 34.3748C29.8156 37.8658 33.2526 46.8178 39.5776 46.8178C41.2446 46.8178 43.4666 45.9288 44.5776 44.8178C45.6886 43.7068 46.5776 41.4848 46.5776 39.8178C46.5776 33.9088 39.8826 30.8148 34.8006 34.3748Z" fill="white"/>
</svg>
