<svg width="80" height="80" viewBox="0 0 80 80" fill="none" xmlns="http://www.w3.org/2000/svg">
<path d="M79.9993 39.7525C79.9058 32.0829 77.6357 24.5998 73.4566 18.1847C69.2775 11.7695 63.3638 6.68944 56.4116 3.54274C49.4589 0.396046 41.7577 -0.686208 34.2144 0.423365C26.6714 1.53299 19.6004 4.7882 13.8344 9.8058C8.06829 14.8234 3.84732 21.3943 1.66851 28.7446C-0.510256 36.095 -0.556158 43.9187 1.5363 51.2945C3.62876 58.6704 7.77239 65.2906 13.4792 70.3763C19.186 75.4621 26.2183 78.8011 33.7479 80V51.4746H23.7477V39.7525H33.7479V30.8478C33.5164 28.7774 33.7394 26.6809 34.4015 24.7066C35.0635 22.7322 36.148 20.9281 37.5785 19.4216C39.0091 17.9151 40.7506 16.7428 42.6807 15.9876C44.6108 15.2324 46.6823 14.9126 48.7484 15.0508C51.7475 15.0921 54.7395 15.3612 57.6986 15.8558V25.9176H52.6985C51.8365 25.8082 50.9604 25.8951 50.1364 26.172C49.3119 26.4488 48.5599 26.9085 47.9358 27.5171C47.3118 28.1256 46.8318 28.8675 46.5313 29.6877C46.2303 30.5082 46.1168 31.3861 46.1983 32.2564V39.8532H57.2986L55.4986 51.5752H46.2483V79.7485C55.6981 78.2447 64.2993 73.3828 70.4915 66.0447C76.6837 58.7066 80.0568 49.3787 79.9993 39.7525Z" fill="white"/>
</svg>
